<?xml version="1.0" standalone="no"?>
<!DOCTYPE svg PUBLIC "-//W3C//DTD SVG 20010904//EN"
 "http://www.w3.org/TR/2001/REC-SVG-20010904/DTD/svg10.dtd">
<svg version="1.0" xmlns="http://www.w3.org/2000/svg"
 width="3264.000000pt" height="1836.000000pt" viewBox="0 0 3264.000000 1836.000000"
 preserveAspectRatio="xMidYMid meet">

<g transform="translate(0.000000,1836.000000) scale(0.100000,-0.100000)"
fill="#76323F" stroke="none">
<path d="M1198 10715 c-136 -34 -218 -97 -275 -213 -38 -76 -38 -76 -41 -221
-5 -172 7 -239 55 -319 40 -65 78 -102 145 -137 96 -50 141 -55 576 -55 l402
0 0 -1232 c0 -1050 3 -1243 15 -1303 47 -223 192 -326 460 -326 248 0 393 90
462 287 16 45 18 145 20 1312 l3 1262 398 0 c428 0 469 4 577 55 65 31 138
108 172 181 36 79 56 202 48 302 -14 182 -79 301 -200 364 -104 55 -33 52
-1450 54 -1091 2 -1319 0 -1367 -11z"/>
<path d="M6057 10720 c-530 -40 -1064 -325 -1368 -730 -339 -452 -469 -1020
-358 -1563 11 -56 38 -153 59 -218 166 -496 494 -878 945 -1100 273 -134 510
-195 795 -206 241 -9 454 21 679 97 699 234 1159 779 1292 1530 18 101 18 460
0 560 -38 215 -92 382 -181 565 -188 386 -456 660 -838 853 -327 166 -674 238
-1025 212z m323 -965 c221 -42 425 -158 557 -315 76 -90 165 -262 194 -375 27
-101 36 -300 20 -399 -68 -398 -353 -698 -741 -781 -207 -44 -398 -23 -603 67
-365 159 -593 558 -549 962 25 225 122 434 273 584 135 135 289 211 534 265
47 11 246 6 315 -8z"/>
<path d="M11290 10724 c-219 -23 -346 -123 -395 -311 -23 -86 -23 -3110 0
-3196 42 -162 139 -257 305 -298 79 -20 1758 -20 1935 -1 766 85 1229 419
1443 1043 71 205 107 411 122 692 20 398 -34 794 -147 1083 -225 573 -688 890
-1428 975 -93 11 -1745 22 -1835 13z m1765 -978 c446 -88 658 -353 681 -848
12 -243 -28 -466 -110 -625 -107 -207 -273 -325 -541 -384 -95 -21 -129 -22
-672 -26 l-573 -5 0 957 0 957 568 -5 c462 -4 582 -8 647 -21z"/>
<path d="M16582 10720 c-483 -39 -968 -275 -1280 -623 -189 -210 -354 -526
-427 -815 -76 -301 -78 -635 -5 -924 99 -389 318 -753 596 -989 303 -257 674
-416 1076 -460 125 -14 380 -6 496 15 357 65 683 217 951 441 328 275 566 716
637 1178 21 136 21 400 0 537 -69 450 -303 886 -624 1166 -385 335 -921 513
-1420 474z m393 -979 c97 -26 247 -97 330 -156 128 -91 247 -246 311 -403 75
-187 90 -421 39 -617 -56 -211 -208 -425 -384 -539 -385 -249 -874 -208 -1201
100 -130 123 -236 316 -274 498 -32 154 -18 361 33 508 113 327 369 548 721
623 97 21 323 14 425 -14z"/>
<path d="M21726 10715 c-126 -32 -219 -102 -270 -203 -58 -114 -56 -65 -56
-1704 0 -1288 2 -1513 15 -1573 36 -171 124 -263 296 -312 60 -17 135 -18
1359 -18 1224 0 1299 1 1359 18 131 37 213 100 260 201 42 88 55 167 48 299
-11 223 -91 345 -272 413 -47 18 -102 19 -1077 22 l-1028 2 -2 1273 -3 1272
-22 59 c-44 115 -133 199 -253 237 -86 28 -270 35 -354 14z"/>
<path d="M27105 10723 c-483 -40 -779 -155 -989 -384 -195 -215 -290 -559
-258 -937 43 -500 277 -806 730 -956 239 -79 386 -95 917 -102 446 -6 524 -13
619 -60 64 -31 99 -72 115 -132 40 -148 -73 -251 -309 -283 -41 -5 -451 -13
-910 -18 -753 -7 -840 -10 -890 -26 -74 -23 -153 -76 -189 -126 -94 -129 -116
-368 -50 -544 30 -82 120 -172 203 -203 110 -42 154 -43 1057 -39 921 4 953 5
1172 57 589 137 887 514 887 1120 -1 412 -138 733 -400 935 -109 84 -290 169
-447 209 -195 51 -268 57 -768 66 -505 9 -558 14 -662 60 -86 38 -125 91 -125
171 0 101 75 175 220 215 62 17 130 19 952 24 l885 5 67 23 c114 38 196 117
237 227 29 76 42 207 31 303 -26 226 -132 349 -337 388 -62 11 -219 14 -896
12 -452 -1 -840 -3 -862 -5z"/>
<path d="M29574 10715 c-203 -44 -309 -180 -329 -425 -18 -211 70 -399 219
-469 101 -48 137 -51 571 -51 l405 0 0 -1253 c0 -1080 2 -1261 15 -1310 52
-201 202 -299 455 -299 258 0 409 101 467 313 17 60 18 146 16 1306 l-2 1242
427 4 c359 3 434 6 473 19 146 51 222 125 271 266 20 57 23 87 23 202 0 115
-3 145 -23 202 -54 155 -160 235 -344 258 -133 16 -2566 12 -2644 -5z"/>
<path d="M25095 10706 c-112 -28 -205 -98 -251 -188 -56 -110 -54 -45 -54
-1703 0 -1659 -2 -1593 54 -1703 90 -177 340 -260 590 -196 151 39 236 121
290 277 l21 62 3 1520 c3 1662 4 1612 -54 1727 -54 107 -155 180 -282 207 -69
14 -254 13 -317 -3z"/>
</g>
</svg>
